<?xml version="1.0" encoding="UTF-8"?>
<!DOCTYPE svg PUBLIC "-//W3C//DTD SVG 1.1//EN" "http://www.w3.org/Graphics/SVG/1.1/DTD/svg11.dtd">
<svg xmlns="http://www.w3.org/2000/svg" xmlns:xlink="http://www.w3.org/1999/xlink" version="1.1" width="570px" height="204px" viewBox="-0.5 -0.5 570 204"><defs/><g><svg xmlns="http://www.w3.org/2000/svg" fill="none" viewBox="0 0 100 100" height="150" width="150" x="24.5" y="26.25">&#xa;  <path fill="#fff" d="M6.017 4.313l55.333 -4.087c6.797 -0.583 8.543 -0.19 12.817 2.917l17.663 12.443c2.913 2.14 3.883 2.723 3.883 5.053v68.243c0 4.277 -1.553 6.807 -6.99 7.193L24.467 99.967c-4.08 0.193 -6.023 -0.39 -8.16 -3.113L3.3 79.94c-2.333 -3.113 -3.3 -5.443 -3.3 -8.167V11.113c0 -3.497 1.553 -6.413 6.017 -6.8z"/>&#xa;  <path fill="#000" d="M61.35 0.227l-55.333 4.087C1.553 4.7 0 7.617 0 11.113v60.66c0 2.723 0.967 5.053 3.3 8.167l13.007 16.913c2.137 2.723 4.08 3.307 8.16 3.113l64.257 -3.89c5.433 -0.387 6.99 -2.917 6.99 -7.193V20.64c0 -2.21 -0.873 -2.847 -3.443 -4.733L74.167 3.143c-4.273 -3.107 -6.02 -3.5 -12.817 -2.917zM25.92 19.523c-5.247 0.353 -6.437 0.433 -9.417 -1.99L8.927 11.507c-0.77 -0.78 -0.383 -1.753 1.557 -1.947l53.193 -3.887c4.467 -0.39 6.793 1.167 8.54 2.527l9.123 6.61c0.39 0.197 1.36 1.36 0.193 1.36l-54.933 3.307 -0.68 0.047zM19.803 88.3V30.367c0 -2.53 0.777 -3.697 3.103 -3.893L86 22.78c2.14 -0.193 3.107 1.167 3.107 3.693v57.547c0 2.53 -0.39 4.67 -3.883 4.863l-60.377 3.5c-3.493 0.193 -5.043 -0.97 -5.043 -4.083zm59.6 -54.827c0.387 1.75 0 3.5 -1.75 3.7l-2.91 0.577v42.773c-2.527 1.36 -4.853 2.137 -6.797 2.137 -3.107 0 -3.883 -0.973 -6.21 -3.887l-19.03 -29.94v28.967l6.02 1.363s0 3.5 -4.857 3.5l-13.39 0.777c-0.39 -0.78 0 -2.723 1.357 -3.11l3.497 -0.97v-38.3L30.48 40.667c-0.39 -1.75 0.58 -4.277 3.3 -4.473l14.367 -0.967 19.8 30.327v-26.83l-5.047 -0.58c-0.39 -2.143 1.163 -3.7 3.103 -3.89l13.4 -0.78z" clip-rule="evenodd" fill-rule="evenodd"/>&#xa;</svg><svg xmlns:xlink="http://www.w3.org/1999/xlink" xmlns="http://www.w3.org/2000/svg" xml:space="preserve" viewBox="0 0 1881.25 1750" y="24.5" x="378.5" id="Livello_1" version="1.1" width="165.05" height="153.5">&#xa;<metadata>&#xa;	&#xa;		&#xa;		&#xa;	&#xa;</metadata>&#xa;<path d="M1801.056,0H517.694C473.404,0,437.5,35.904,437.5,80.194c0,0,0,0,0,0V437.5l743.75,218.75l700-218.75&#10;&#9;V80.194C1881.25,35.904,1845.346,0,1801.056,0L1801.056,0z" fill="#41A5EE"/>&#xa;<path d="M1881.25,437.5H437.5V875l743.75,131.25l700-131.25V437.5z" fill="#2B7CD3"/>&#xa;<path d="M437.5,875v437.5l700,87.5l743.75-87.5V875H437.5z" fill="#185ABD"/>&#xa;<path d="M517.694,1750h1283.363c44.29,0,80.194-35.904,80.194-80.194l0,0V1312.5H437.5v357.306&#10;&#9;C437.5,1714.096,473.404,1750,517.694,1750L517.694,1750z" fill="#103F91"/>&#xa;<path d="M969.806,350H437.5v1093.75h532.306c44.23-0.144,80.05-35.964,80.194-80.194&#10;&#9;V430.194C1049.856,385.964,1014.036,350.144,969.806,350z" opacity="0.1"/>&#xa;<path d="M926.056,393.75H437.5V1487.5h488.556c44.23-0.144,80.05-35.964,80.194-80.194&#10;&#9;V473.944C1006.106,429.714,970.286,393.894,926.056,393.75z" opacity="0.2"/>&#xa;<path d="M926.056,393.75H437.5V1400h488.556c44.23-0.144,80.05-35.964,80.194-80.194&#10;&#9;V473.944C1006.106,429.714,970.286,393.894,926.056,393.75z" opacity="0.2"/>&#xa;<path d="M882.306,393.75H437.5V1400h444.806c44.23-0.144,80.05-35.964,80.194-80.194&#10;&#9;V473.944C962.356,429.714,926.536,393.894,882.306,393.75z" opacity="0.2"/>&#xa;<linearGradient gradientTransform="matrix(1 0 0 -1 0 1752)" y2="333.0883" x2="795.2943" y1="1420.9117" x1="167.2057" gradientUnits="userSpaceOnUse" id="SVGID_1_">&#xa;	<stop style="stop-color:#2368C4" offset="0"/>&#xa;	<stop style="stop-color:#1A5DBE" offset="0.5"/>&#xa;	<stop style="stop-color:#1146AC" offset="1"/>&#xa;</linearGradient>&#xa;<path d="M80.194,393.75h802.112c44.29,0,80.194,35.904,80.194,80.194v802.113&#10;&#9;c0,44.29-35.904,80.194-80.194,80.194H80.194c-44.29,0-80.194-35.904-80.194-80.194V473.944C0,429.654,35.904,393.75,80.194,393.75z" fill="url(#SVGID_1_)"/>&#xa;<path d="M329.088,1008.788c1.575,12.381,2.625,23.144,3.106,32.375h1.837c0.7-8.75,2.158-19.294,4.375-31.631&#10;&#9;c2.217-12.338,4.215-22.765,5.994-31.281l84.35-363.913h109.069l87.5,358.444c5.084,22.288,8.723,44.881,10.894,67.637h1.444&#10;&#9;c1.631-22.047,4.671-43.966,9.1-65.625l69.781-360.631h99.269l-122.588,521.5H577.238L494.113,790.3&#10;&#9;c-2.406-9.931-5.162-22.925-8.181-38.894c-3.019-15.969-4.9-27.65-5.644-35h-1.444c-0.962,8.487-2.844,21.088-5.644,37.8&#10;&#9;c-2.8,16.713-5.046,29.079-6.738,37.1l-78.138,344.269h-117.95L147.131,614.337h101.062l75.994,364.656&#10;&#9;C325.894,986.475,327.513,996.45,329.088,1008.788z" fill="#FFFFFF"/>&#xa;</svg><svg xmlns:xlink="http://www.w3.org/1999/xlink" xmlns="http://www.w3.org/2000/svg" xml:space="preserve" viewBox="0 0 414.287 414.287" height="150" width="150" id="Capa_1" version="1.1" fill="#000000" x="198.5" y="26.25">&#xa;<g>&#xa;	<path d="M412.398,202.993L288.535,95.289c-1.502-1.305-3.591-1.699-5.463-1.027c-1.873,0.67-3.237,2.3-3.568,4.261l-8.938,52.887&#10;&#9;&#9;H40.554c-2.684,0-4.976,1.938-5.423,4.583l-3.054,18.067c-0.27,1.597,0.177,3.23,1.223,4.467c1.045,1.237,2.581,1.95,4.2,1.95&#10;&#9;&#9;h103.982l-2.208,15H8.134c-2.684,0-4.976,1.938-5.423,4.583l-2.634,15.584c-0.27,1.597,0.177,3.229,1.223,4.467&#10;&#9;&#9;c1.045,1.236,2.581,1.949,4.2,1.949h159.196l-2.206,15H63.505c-2.684,0-4.976,1.938-5.423,4.583l-2.505,14.817&#10;&#9;&#9;c-0.271,1.597,0.177,3.229,1.222,4.467c1.046,1.237,2.582,1.95,4.201,1.95h190.721l-8.628,51.053&#10;&#9;&#9;c-0.366,2.168,0.593,4.346,2.439,5.538c0.908,0.586,1.945,0.879,2.982,0.879c1.07,0,2.141-0.312,3.067-0.935l160.272-107.704&#10;&#9;&#9;c1.421-0.955,2.316-2.518,2.422-4.225C414.385,205.776,413.689,204.116,412.398,202.993z"/>&#xa;</g>&#xa;</svg></g></svg>